<svg xmlns="http://www.w3.org/2000/svg" width="52" height="43" viewBox="0 0 52 43"><g><g><g><g><g><g><path d="M35.25 7.102a1.065 1.065 0 0 0-.438-.263l-9.85-3.093c-3.94-1.237-6.502.92-7.193 1.613-.403.403-.711.828-.87 1.197l-4.387 10.322c-.252.59-.166 1.378.228 2.162a4.225 4.225 0 0 0 2.796 2.22c1.36.326 2.77-.117 3.874-1.22.289-.288.535-.607.68-.877l1.475-2.736a5.74 5.74 0 0 1 .965-1.294c1.266-1.267 1.867-.687 2.123-.441 2.207 2.13 13.78 13.751 13.78 13.751.41.412.325 1.192-.19 1.706-.513.513-1.295.6-1.705.191l-3.251-3.25a1.067 1.067 0 0 0-1.515 0 1.068 1.068 0 0 0 0 1.514l3.251 3.252c.41.41.325 1.19-.189 1.702-.513.515-1.296.6-1.704.191l-3.252-3.25a1.07 1.07 0 0 0-1.515 0 1.07 1.07 0 0 0 0 1.515l3.251 3.25c.41.411.322 1.192-.19 1.705-.513.513-1.294.6-1.705.19l-3.252-3.25a1.071 1.071 0 0 0-1.514 1.513l3.25 3.252c.412.412.325 1.192-.188 1.706-.516.513-1.296.6-1.706.19l-3.957-3.962c.565-.85.411-2.082-.427-2.924-.94-.938-2.385-1.025-3.222-.186.837-.838.754-2.281-.188-3.222-.941-.94-2.383-1.026-3.22-.19.837-.836.752-2.278-.19-3.218-.94-.941-2.383-1.027-3.221-.19.838-.837.752-2.28-.189-3.222-.88-.88-2.192-1-3.045-.33l-6.408-6.408a1.07 1.07 0 0 0-1.516 0 1.075 1.075 0 0 0 0 1.516l6.392 6.39-1.895 1.896c-.837.836-.752 2.278.19 3.22.94.94 2.382 1.027 3.22.19-.838.837-.752 2.278.19 3.22.94.938 2.383 1.027 3.22.19-.837.837-.753 2.278.189 3.219.942.942 2.384 1.027 3.22.191-.836.835-.752 2.276.19 3.22.94.939 2.382 1.025 3.22.188l2.002-2 3.93 3.928c1.255 1.255 3.377 1.167 4.736-.19a3.622 3.622 0 0 0 1.064-2.343 3.617 3.617 0 0 0 2.344-1.067 3.628 3.628 0 0 0 1.069-2.343 3.628 3.628 0 0 0 2.343-1.066 3.62 3.62 0 0 0 1.065-2.344 3.609 3.609 0 0 0 2.345-1.067c1.357-1.357 1.44-3.482.19-4.734l-1.658-1.658 6.805-6.804a1.071 1.071 0 0 0 0-1.515z"/></g></g><g><g><path d="M46.826 13.914a1.759 1.759 0 1 1 0-3.518 1.759 1.759 0 0 1 0 3.518zm4.551-4.417L42.705.825a2.143 2.143 0 0 0-3.031 0l-3.032 3.03a2.144 2.144 0 0 0 0 3.03l8.673 8.674a2.145 2.145 0 0 0 3.032 0l3.03-3.03a2.147 2.147 0 0 0 0-3.032z"/></g></g></g></g></g></g></svg>