<svg xmlns="http://www.w3.org/2000/svg" width="26" height="25" viewBox="0 0 26 25"><g><g><path fill="#fff" d="M.322 24.167h5.42V7.86H.322zM3.068 0C1.213 0 0 1.217 0 2.817c0 1.565 1.178 2.819 2.996 2.819h.036c1.891 0 3.067-1.254 3.067-2.82C6.064 1.217 4.923 0 3.07 0zm15.98 7.477c-2.879 0-4.165 1.585-4.886 2.695v.053h-.035c.01-.017.024-.036.035-.053V7.86H8.74c.073 1.531 0 16.307 0 16.307h5.423V15.06c0-.488.037-.973.18-1.321.392-.975 1.283-1.983 2.78-1.983 1.963 0 2.747 1.495 2.747 3.687v8.724h5.42v-9.35c0-5.009-2.674-7.34-6.241-7.34z"/></g></g></svg>