<svg xmlns="http://www.w3.org/2000/svg" width="30" height="24" viewBox="0 0 30 24"><g><g><path fill="#fff" d="M29.298 2.816a12.002 12.002 0 0 1-3.451.946A6.035 6.035 0 0 0 28.489.44a12.116 12.116 0 0 1-3.82 1.46A5.993 5.993 0 0 0 20.284 0a6.01 6.01 0 0 0-5.855 7.378 17.063 17.063 0 0 1-12.387-6.28 5.965 5.965 0 0 0-.813 3.021 6.007 6.007 0 0 0 2.673 5.002 6.01 6.01 0 0 1-2.722-.754v.075c0 2.91 2.072 5.34 4.82 5.893a6.088 6.088 0 0 1-1.583.21 5.77 5.77 0 0 1-1.132-.111 6.013 6.013 0 0 0 5.614 4.174 12.059 12.059 0 0 1-7.465 2.569c-.485 0-.963-.03-1.433-.083a16.989 16.989 0 0 0 9.212 2.704c11.057 0 17.1-9.157 17.1-17.1l-.02-.777c1.18-.842 2.202-1.9 3.006-3.105z"/></g></g></svg>